PathFileType	4	(X/Y/Z)	\\147.46.242.158\로컬 디스크 (e)\MOCAP Data\Iguana Capture\iguana\Project 2\Capture day 6 after broken\Session 2\Take08 good walk.trc
DataRate	CameraRate	NumFrames	NumMarkers	Units	OrigDataRate	OrigDataStartFrame	OrigNumFrames
120.0	120.0	13	23	mm	120.0	1	9299
Frame#	Time	ana:head1			ana:head2			ana:bone1			ana:bone2			ana:bone3			ana:tail1			ana:tail2			ana:tail3			ana:tail4			ana:Rforefoot1			ana:Rforefoot2			ana:Rforefoot3			ana:Lforefoot1			ana:Lforefoot2			ana:Lforefoot3			ana:RhindLeg1			ana:RhindLeg2			ana:RhindLeg3			ana:RhindLeg4			ana:LhindLeg1			ana:LhindLeg2			ana:LhindLeg3			ana:LhindLeg4			
		X1	Y1	Z1	X2	Y2	Z2	X3	Y3	Z3	X4	Y4	Z4	X5	Y5	Z5	X6	Y6	Z6	X7	Y7	Z7	X8	Y8	Z8	X9	Y9	Z9	X10	Y10	Z10	X11	Y11	Z11	X12	Y12	Z12	X13	Y13	Z13	X14	Y14	Z14	X15	Y15	Z15	X16	Y16	Z16	X17	Y17	Z17	X18	Y18	Z18	X19	Y19	Z19	X20	Y20	Z20	X21	Y21	Z21	X22	Y22	Z22	X23	Y23	Z23	

8633	71.933	115.81310	192.30519	42.28722	106.76453	197.58432	42.81030	88.90462	210.39920	35.62015	71.08807	230.94115	28.46578	49.59678	258.33865	19.17609	35.51147	287.14987	14.36552	31.64682	320.35547	10.06042	34.73441	365.89929	7.13585	35.34793	399.77710	6.25020	81.32856	201.55345	21.87032	66.98624	207.66336	19.26503	62.06970	202.01144	5.41597	99.46667	216.72939	20.02914	98.77804	229.89000	14.88030	103.23447	222.53375	2.85404	41.55916	253.85088	12.85629	29.18435	244.10791	13.59676	23.31408	260.76575	5.74719	21.14207	249.53427	4.96568	59.70388	263.23157	13.44659	76.23454	265.66711	16.13551	76.34472	283.96204	4.24426	88.12277	282.52637	4.63613	
8634	71.942	116.40275	192.23944	41.93136	106.99111	197.43658	42.94765	89.07388	210.38026	35.89228	71.28146	230.88593	28.56007	49.74324	258.18887	19.28802	35.49466	286.97580	14.50758	31.56353	320.26776	10.23656	34.67933	365.64984	7.13576	35.48999	399.64474	6.30841	81.64744	201.52441	22.24073	67.22844	207.35983	19.44799	62.00535	202.03885	5.52616	99.66219	216.60187	20.17898	98.81352	229.91554	14.90747	103.17229	222.51189	2.84966	41.60967	253.78993	13.04396	29.15230	244.11011	13.56998	23.32330	260.74615	5.72798	21.12222	249.46284	4.95324	59.80716	262.77731	13.77568	76.16147	265.62372	16.32916	76.33356	284.05917	4.40180	88.21683	282.83499	4.78995	
8635	71.950	116.73802	192.12750	41.81481	107.31224	197.40401	42.95762	89.32692	210.30580	35.81595	71.25132	230.78255	28.49266	49.75354	257.94016	19.39023	35.64436	286.87527	14.62916	31.64488	320.08325	10.18330	34.72848	365.52844	7.10998	35.46537	399.39703	6.31334	81.93816	201.35320	22.34130	67.53606	207.20148	19.63558	61.98462	202.01541	5.56396	99.80333	216.66551	20.22177	98.82177	229.92531	14.89359	103.21338	222.52954	2.85968	41.94318	253.10324	12.73042	29.23102	244.14908	13.65701	23.44697	260.69775	5.51653	21.14611	249.45790	4.90927	59.85710	262.44257	13.78123	76.11211	265.75757	16.51657	76.05996	284.13608	4.88716	88.05592	282.50964	5.17079	
8636	71.958	116.96045	192.16786	41.97868	107.79683	196.97797	42.99989	89.70396	210.20944	35.69836	71.36345	230.61200	28.62438	50.66016	257.81857	19.96747	35.71222	286.64722	14.65111	31.70155	319.89575	10.15464	34.74160	365.32571	7.01931	35.45587	399.20224	6.23492	82.33321	201.11237	22.33714	67.78542	207.03401	19.80796	61.97695	201.99837	5.68481	99.94106	216.64403	20.21838	98.63132	229.81577	14.97288	102.88017	222.23685	2.96671	41.49250	253.20398	13.14568	29.24092	244.13289	13.66440	23.45572	260.73300	5.57906	21.12854	249.44232	4.90082	59.91938	262.62738	13.73708	76.60331	265.53461	15.98204	76.47686	284.03601	4.99430	88.10352	282.56805	5.16274	
8637	71.967	117.47254	192.13899	42.10749	108.38709	196.42200	43.11040	89.86211	210.20161	35.76842	71.54604	230.38878	28.78420	50.47171	257.16162	19.86110	35.80859	286.55603	14.68083	31.74797	319.71811	10.20181	34.79530	365.16473	7.02091	35.55578	399.23352	6.17865	82.68682	200.85931	22.39820	67.94811	206.74551	20.02262	62.06965	201.92537	5.72137	100.33743	216.82985	20.51244	98.68095	229.80882	14.97995	102.89556	222.18120	2.91495	41.30062	253.09651	13.40044	29.19080	244.13454	13.69954	23.28236	260.72839	5.72498	21.15033	249.44067	4.90830	60.10432	262.51285	13.93920	76.72197	265.54257	16.02759	76.47376	283.99512	5.05763	88.12488	282.58490	5.09607	
8638	71.975	117.82586	192.04449	42.02509	108.10817	196.88602	43.27532	90.14909	210.15520	35.76368	72.02697	230.06679	28.74898	50.60155	256.93832	19.71976	35.82460	286.21884	14.80074	31.81314	319.58514	10.12267	34.90136	365.13907	7.19595	35.41813	398.86932	6.07217	82.89302	200.85315	22.61464	68.25224	206.52225	20.25128	62.03862	201.96089	5.79534	100.50223	216.79782	20.53373	99.06899	229.68642	15.43176	102.95991	222.18944	3.01174	41.60170	253.03111	13.29701	29.18538	244.11449	13.73979	23.27665	260.78476	5.71062	21.15062	249.52742	4.92587	60.18613	262.42038	14.02538	76.76778	265.54013	16.03793	76.46943	283.83618	4.91914	88.15381	282.98001	4.98556	
8639	71.983	117.72985	191.91176	41.76896	107.62202	196.96242	43.02752	90.58029	209.97360	36.01294	72.17232	229.90562	28.88144	50.67181	256.82925	19.91137	35.93663	286.16486	14.86357	31.93743	319.42221	10.29230	34.92834	364.95645	7.21058	35.52281	398.61691	6.01823	83.31423	200.75157	22.60620	68.49889	206.29045	20.49840	62.38230	201.63628	6.07308	100.75941	216.75186	20.53290	99.09115	229.67482	15.44349	102.99751	222.21983	3.01297	41.76741	252.90967	13.47228	29.24650	244.26228	13.80768	23.27938	260.80597	5.74597	21.11198	249.45039	4.89693	60.24318	262.28302	14.01420	76.87354	265.49646	16.14614	76.64561	283.68042	4.62298	88.09824	282.97397	5.15364	
8640	71.992	118.64670	192.05423	42.21928	109.00962	196.62946	43.19590	90.82280	209.96877	36.06000	72.34125	229.77995	29.03319	50.32383	256.95953	20.06581	36.09358	285.96463	14.96751	31.98641	319.23569	10.37129	34.87083	364.57562	7.06481	35.47707	398.20740	6.06341	83.72891	200.74347	22.76898	68.87183	206.04886	20.82392	62.45927	201.48062	6.12360	100.95547	216.73766	20.56548	99.19781	229.66893	15.43942	102.91550	222.24185	2.94327	41.86461	252.85599	13.64799	29.24584	244.14688	13.82041	23.31023	260.77872	5.69774	21.12432	249.45956	4.90175	60.35877	262.14197	14.07943	76.87788	265.57367	16.20403	76.19889	283.91132	4.99124	88.20979	283.07257	4.95838	
8641	72.000	118.95416	191.99350	42.45208	109.42019	196.83362	43.42744	91.09307	209.83420	36.16019	72.43169	229.69461	29.08766	50.27676	256.32568	20.10883	36.21678	285.69778	15.07100	32.05059	319.00992	10.33282	34.83390	364.32407	6.99050	35.52827	397.97726	6.01730	83.59184	200.60759	22.92043	69.23893	205.79655	21.03549	62.61132	201.23720	6.22020	101.20004	216.91811	20.63336	99.29360	229.63054	15.40985	102.90249	222.21967	2.94650	42.01737	252.66203	13.69718	29.25099	244.13826	13.82444	23.27863	260.77643	5.68680	21.15489	249.45120	4.86403	60.35107	261.97324	14.24311	76.90559	265.59622	16.26050	76.53625	283.67288	4.75835	88.24892	283.06818	4.97572	
8642	72.008	119.51800	192.11229	42.97707	110.06525	197.27313	43.78113	91.46294	209.78609	36.45272	72.63152	229.60013	29.23783	50.40603	256.75159	20.50621	36.30366	285.77985	15.20220	32.00164	318.89810	10.47948	34.92833	364.03201	6.95960	35.53648	397.89032	5.93271	84.47680	200.69359	23.01729	69.56115	205.62318	21.17386	62.90411	201.32033	6.13579	101.41656	216.98628	20.67818	99.33273	229.63388	15.36612	102.95728	222.28136	2.90779	42.08436	252.41019	13.87011	29.27930	244.28479	13.90071	23.25972	260.77701	5.72011	21.12546	249.45949	4.86503	60.45566	261.77014	14.37004	77.00265	265.61560	16.33979	76.52280	283.71555	4.81382	88.21281	283.01257	5.02758	
8643	72.017	119.70044	192.04700	42.54882	110.28832	196.71101	43.92452	91.82815	209.88409	36.49678	72.85806	229.39403	29.39868	51.09753	256.18958	20.55217	36.32904	285.36563	15.23488	32.07140	318.72083	10.45666	35.11449	363.78476	6.92984	35.59056	397.62695	5.83886	84.83664	200.40175	23.39297	69.85312	205.23210	21.40908	62.87592	200.95747	6.50045	101.58011	216.90359	20.66750	99.09627	229.88934	15.05187	102.92090	222.74205	2.30249	42.22943	252.48926	14.34918	29.20685	244.17691	13.90872	23.25403	260.84323	5.73741	20.67187	249.64003	5.18501	60.48034	261.58609	14.44282	77.09801	265.61151	16.36166	76.27991	283.80063	4.89453	88.29175	283.06598	4.96256	
8644	72.025	120.23377	192.06430	42.54031	110.96871	196.91762	43.70180	92.22585	209.73483	36.72356	73.06013	229.27452	29.63552	51.17963	255.96600	20.76206	36.57864	285.20840	15.38429	32.11940	318.31244	10.43183	35.19856	363.58612	7.01596	35.62002	397.34607	5.94403	85.28749	200.29773	23.52927	70.23359	205.06497	21.91073	63.36094	200.99567	6.71487	101.78825	216.88387	20.75292	99.14052	229.90773	15.05397	102.92091	222.74205	2.30251	42.36005	252.39001	14.50139	29.26806	244.28775	13.94183	23.23486	260.85123	5.72826	20.68384	249.56400	5.21450	60.63243	261.38083	14.48866	77.15855	265.68826	16.52252	76.35105	283.80261	4.95686	88.34288	283.07144	4.88275	
8645	72.033	120.68973	192.05902	42.48997	111.53829	197.11607	43.82681	92.60577	209.62186	36.63779	73.26048	229.11014	29.76588	51.83549	255.48593	20.72778	36.69032	285.05380	15.59956	32.14421	318.21475	10.31912	35.26734	363.36078	7.01884	35.69537	397.12616	6.00751	85.83736	200.21284	23.76389	70.60531	204.70001	22.17816	63.29377	200.48100	6.60194	101.99640	216.92285	20.71306	99.10537	229.77528	14.97044	102.89300	222.70555	2.28013	42.42021	252.31213	14.48868	29.29768	244.26204	13.95898	23.08656	261.03519	5.65963	20.78465	249.03497	4.84239	60.80544	261.16986	14.86340	77.25474	265.71729	16.67351	76.28418	283.74188	4.92440	88.42036	283.26752	4.94681	
